G04 EdaTools v1.0. *
G04 EdaTools CAM processor. Gerber generator. *
G04 BEGIN HEADER *
%TF.FileFunction,Copper,L1,Top,Signal*%
%TF.FilePolarity,Positive*%
%MOMM*%
%FSLAX35Y35*%
%OFA0B0*%
%IPPOS*%
G04 END HEADER *
G04 BEGIN MACROS *
%AMM0*21,1,$1,$2-$3-$3,0,0,$4*
21,1,$1-$3-$3,$2,0,0,$4*
$5=$1/2*
$6=$2/2*
$7=2x$3*
1,1,$7,$5-$3,$6-$3,$4*
1,1,$7,-$5+$3,$6-$3,$4*
1,1,$7,-$5+$3,-$6+$3,$4*
1,1,$7,$5-$3,-$6+$3,$4*%
%AMM1*21,1,$1,$2,0,0,$4*
1,0,$3,0,0,0*%
G04 END MACROS *
G04 BEGIN APERTURES *
%ADD10C,0.01*%
%ADD11M1,1.28X1.28X0X90*%
%ADD12P,1.28X8X112.5*%
%ADD13M0,1X1.4X0.12X90*%
%ADD14M1,0.6604X2.032X0X0*%
%ADD15M0,0.7X1.8X0.1715X270*%
%ADD16M0,2.25X3X0.27X90*%
%ADD17M1,5.08X1.778X0X180*%
%ADD18M0,1.5X0.5X0.1225X90*%
%ADD19M0,0.5X1.5X0.1225X90*%
%ADD20M1,1.6X1.4X0X90*%
%ADD21M1,1.6X1.4X0X270*%
%ADD22O,3.2512X1.6256*%
%ADD23M1,1.2X1.2X0X0*%
%ADD24M1,1X1.5X0X180*%
%ADD25M1,1X2X0X180*%
%ADD26M0,2.2X3.7X1.089X180*%
%ADD27M1,1.3X1.5X0X90*%
%ADD28M0,0.6X1.6X0.072X180*%
%ADD29M1,0.91X1.22X0X270*%
%ADD30M1,0.91X1.22X0X450*%
%ADD31M0,1X1.25X0.12X270*%
%ADD32P,1.28X8X22.5*%
%ADD33M1,1.28X1.28X0X0*%
%ADD34M0,1.6X2X0.192X90*%
%ADD35M0,1.6X2X0.192X270*%
%ADD36C,0.40625*%
%ADD37C,0.6*%
%ADD38C,0.8*%
%ADD39C,0.2*%
%ADD40C,0.4*%
G04 END APERTURES *
G04 BEGIN IMAGE *
D10*
D02*
X01400000D01*
D02*
Y00650000D01*
D02*
X05600000D01*
D02*
Y00000000D01*
D02*
X07000000D01*
D02*
Y06750000D01*
D02*
X00000000D01*
D02*
Y00000000D01*
D11*
X03525000Y00850000D03*
D12*
X03725000D03*
X03925000D03*
X04125000D03*
X04325000D03*
D13*
X04175000Y05170000D03*
Y05380000D03*
Y04682500D03*
Y04892500D03*
Y04195000D03*
Y04405000D03*
Y03720000D03*
Y03930000D03*
D14*
X00930500Y01367660D03*
Y01982340D03*
X01057500Y01367660D03*
X01184500D03*
X01057500Y01982340D03*
X01184500D03*
X01311500Y01367660D03*
Y01982340D03*
X01438500Y01367660D03*
Y01982340D03*
X01565500Y01367660D03*
X01692500D03*
X01565500Y01982340D03*
X01692500D03*
X01819500Y01367660D03*
Y01982340D03*
D13*
X01025000Y01080000D03*
Y00870000D03*
X01725000Y01080000D03*
Y00870000D03*
X01225000Y01080000D03*
Y00870000D03*
X01525000Y01080000D03*
Y00870000D03*
D15*
X00650000Y02862500D03*
Y02737500D03*
Y02987500D03*
Y03112500D03*
D16*
X00300000Y02487500D03*
X00300000Y03362500D03*
D15*
X00650000Y04012500D03*
Y03887500D03*
Y04137500D03*
Y04262500D03*
D16*
X00300000Y03637500D03*
X00300000Y04512500D03*
D13*
X03800000Y02880000D03*
Y02670000D03*
X03575000Y02880000D03*
Y02670000D03*
X00720000Y02225000D03*
X00930000D03*
D17*
X03232600Y03100000D03*
X02267400D03*
D13*
X03230000Y03450000D03*
X03020000D03*
X02270000Y03450000D03*
X02480000D03*
X01450000Y02345000D03*
Y02555000D03*
X01225000Y02345000D03*
Y02555000D03*
X04175000Y03245000D03*
Y03455000D03*
Y02770000D03*
Y02980000D03*
D18*
X02550000Y01270000D03*
X02630000D03*
X02710000D03*
X02790000D03*
X02870000D03*
X02950000D03*
X03030000D03*
X03110000D03*
X03190000D03*
X03270000D03*
X03350000D03*
D19*
X03530000Y01450000D03*
Y01530000D03*
Y01610000D03*
Y01690000D03*
Y01770000D03*
Y01850000D03*
Y01930000D03*
Y02010000D03*
Y02090000D03*
Y02170000D03*
Y02250000D03*
D18*
X03350000Y02430000D03*
X03270000D03*
X03190000D03*
X03110000D03*
X03030000D03*
X02950000D03*
X02870000D03*
X02790000D03*
X02710000D03*
X02630000D03*
X02550000D03*
D19*
X02370000Y02250000D03*
Y02170000D03*
Y02090000D03*
Y02010000D03*
Y01930000D03*
Y01850000D03*
Y01770000D03*
Y01690000D03*
Y01610000D03*
Y01530000D03*
Y01450000D03*
D13*
X03037500Y00870000D03*
Y01080000D03*
X03250000Y00870000D03*
Y01080000D03*
X06562500Y02980000D03*
Y02770000D03*
Y03455000D03*
Y03245000D03*
X04050000Y01555000D03*
Y01345000D03*
X04750000D03*
Y01555000D03*
D20*
X01150000Y04425000D03*
D21*
Y04725000D03*
D22*
X05944000Y01552000D03*
Y01298000D03*
D13*
X01375000Y04605000D03*
Y04395000D03*
D20*
X03875000Y02075000D03*
D21*
X04175000D03*
D13*
X04067500Y01875000D03*
X03857500D03*
X02575000Y00870000D03*
Y01080000D03*
D23*
X02375000D03*
Y00870000D03*
D13*
X06562500Y03930000D03*
Y03720000D03*
Y04405000D03*
Y04195000D03*
D15*
X00650000Y01362500D03*
Y01237500D03*
Y01487500D03*
Y01612500D03*
D16*
X00300000Y00987500D03*
X00300000Y01987500D03*
D15*
X00650000Y01739500D03*
D24*
X04549900Y01548100D03*
X04250100D03*
D25*
X04400000Y01522700D03*
D26*
Y01256000D03*
D27*
X04975000Y01355000D03*
Y01545000D03*
D13*
X04975000Y01130000D03*
Y00920000D03*
X02687500Y04780000D03*
Y04570000D03*
X02437500Y04780000D03*
Y04570000D03*
X03507500Y01075000D03*
X03717500D03*
D28*
X00363500Y05691750D03*
X00363500Y05108250D03*
X00490500Y05691750D03*
X00236500D03*
X00109500D03*
X00490500Y05108250D03*
X00236500D03*
X00109500D03*
X00913500Y05691750D03*
Y05108250D03*
X01040500Y05691750D03*
X00786500D03*
X00659500D03*
X01040500Y05108250D03*
X00786500D03*
X00659500D03*
X01463500Y05691750D03*
Y05108250D03*
X01590500Y05691750D03*
X01336500D03*
X01209500D03*
X01590500Y05108250D03*
X01336500D03*
X01209500D03*
X02013500Y05691750D03*
Y05108250D03*
X02140500Y05691750D03*
X01886500D03*
X01759500D03*
X02140500Y05108250D03*
X01886500D03*
X01759500D03*
X02563500Y05691750D03*
Y05108250D03*
X02690500Y05691750D03*
X02436500D03*
X02309500D03*
X02690500Y05108250D03*
X02436500D03*
X02309500D03*
D29*
X04750000Y00862500D03*
D30*
Y01187500D03*
D31*
X04390000Y05377000D03*
Y05123000D03*
X05010000D03*
Y05377000D03*
X04390000Y04902000D03*
Y04648000D03*
X05010000D03*
Y04902000D03*
X04390000Y04427000D03*
Y04173000D03*
X05010000D03*
Y04427000D03*
X04390000Y03952000D03*
Y03698000D03*
X05010000D03*
Y03952000D03*
X04390000Y03477000D03*
Y03223000D03*
X05010000D03*
Y03477000D03*
X04390000Y03002000D03*
Y02748000D03*
X05010000D03*
Y03002000D03*
X06360000Y02748000D03*
Y03002000D03*
X05740000D03*
Y02748000D03*
X06360000Y03223000D03*
Y03477000D03*
X05740000D03*
Y03223000D03*
X06360000Y03698000D03*
Y03952000D03*
X05740000D03*
Y03698000D03*
X06360000Y04173000D03*
Y04427000D03*
X05740000D03*
Y04173000D03*
D13*
X03237500Y04780000D03*
Y04570000D03*
X02987500Y04780000D03*
Y04570000D03*
D28*
X03113500Y05691750D03*
Y05108250D03*
X03240500Y05691750D03*
X02986500D03*
X02859500D03*
X03240500Y05108250D03*
X02986500D03*
X02859500D03*
D32*
X01273000Y06187500D03*
D33*
Y06387500D03*
D32*
X01473000Y06187500D03*
Y06387500D03*
X01673000Y06187500D03*
Y06387500D03*
X01873000Y06187500D03*
Y06387500D03*
X02073000Y06187500D03*
Y06387500D03*
X02273000Y06187500D03*
Y06387500D03*
X02473000Y06187500D03*
Y06387500D03*
X02673000Y06187500D03*
Y06387500D03*
X02873000D03*
Y06187500D03*
X04285500D03*
D33*
Y06387500D03*
D32*
X04485500Y06187500D03*
Y06387500D03*
X04685500Y06187500D03*
Y06387500D03*
X04885500Y06187500D03*
Y06387500D03*
X05085500Y06187500D03*
Y06387500D03*
X05285500Y06187500D03*
Y06387500D03*
X05485500Y06187500D03*
Y06387500D03*
X05685500Y06187500D03*
Y06387500D03*
D13*
X06812500Y04495000D03*
Y04705000D03*
Y04995000D03*
Y05205000D03*
D34*
X06577000Y04669000D03*
Y04923000D03*
Y05177000D03*
Y05431000D03*
D35*
X05623000D03*
Y05177000D03*
Y04923000D03*
Y04669000D03*
D28*
X03663500Y05691750D03*
Y05108250D03*
X03790500Y05691750D03*
X03536500D03*
X03409500D03*
X03790500Y05108250D03*
X03536500D03*
X03409500D03*
D13*
X03787500Y04780000D03*
Y04570000D03*
X03537500Y04780000D03*
Y04570000D03*
D36*
X00200000Y04575000D03*
X00400000D03*
Y04475000D03*
X00200000D03*
Y03675000D03*
Y03575000D03*
X00400000D03*
Y03675000D03*
X00200000Y03425000D03*
X00400000D03*
Y03325000D03*
X00200000D03*
Y02525000D03*
X00400000D03*
Y02425000D03*
X00200000D03*
Y02050000D03*
X00400000D03*
Y01950000D03*
X00200000D03*
Y01025000D03*
Y00925000D03*
X00400000D03*
Y01025000D03*
X01725000Y02662500D03*
X03375000Y00775000D03*
X04400000Y03825000D03*
Y03350000D03*
X04150000Y01225000D03*
X04600000Y01250000D03*
X05150000Y01400000D03*
X05250000Y01050000D03*
X05500000Y00800000D03*
X05600000Y01050000D03*
X05650000Y01400000D03*
X02025000Y03600000D03*
X01400000Y02750000D03*
X01725000Y04675000D03*
X02825000Y04750000D03*
X02025000Y04300000D03*
X01950000Y03175000D03*
X01400000Y03450000D03*
Y03875000D03*
Y04225000D03*
X00350000Y04850000D03*
X00950000Y04300000D03*
X01025000Y04075000D03*
X00450000Y04250000D03*
X00650000Y04400000D03*
X00450000Y03100000D03*
X00600000Y03300000D03*
X00450000Y02900000D03*
Y04000000D03*
X00600000Y03500000D03*
X01050000Y02750000D03*
Y03200000D03*
Y03650000D03*
X01400000Y00750000D03*
X01875000Y00775000D03*
X01900000Y01075000D03*
X01250000Y01200000D03*
X01000000D03*
X01900000Y02462500D03*
X02625000Y03500000D03*
X02175000Y04475000D03*
X02725000Y03725000D03*
X02250000Y04700000D03*
X01412500Y03025000D03*
X00750000Y04650000D03*
X04000000Y05450000D03*
X04550000Y01700000D03*
X02125000Y03450000D03*
X01125000Y01200000D03*
X01025000Y00762500D03*
X02925000Y01150000D03*
X06575000Y02575000D03*
X06275000Y02450000D03*
X05775000D03*
X05425000Y02325000D03*
X04975000Y02450000D03*
X04500000D03*
X04550000Y02175000D03*
X04850000D03*
X04112500Y02200000D03*
X04250000Y01825000D03*
X04650000Y01875000D03*
X05150000Y01825000D03*
X05600000Y01775000D03*
X05950000Y01875000D03*
X06350000Y01825000D03*
X06700000Y01725000D03*
X06850000Y01875000D03*
X06450000Y02175000D03*
X06000000Y02125000D03*
X05700000Y02175000D03*
X06350000Y02875000D03*
Y03350000D03*
Y03825000D03*
Y04300000D03*
X06937500Y05537500D03*
X06437500D03*
Y04787500D03*
X06937500Y04262500D03*
X06750000Y04025000D03*
X06937500Y03475000D03*
Y02775000D03*
X04550000Y01000000D03*
X04200000D03*
Y01400000D03*
X03500000Y01350000D03*
X03350000Y02150000D03*
X03250000Y01900000D03*
X02975000Y01875000D03*
X03000000Y01650000D03*
X02175000Y01350000D03*
X02125000Y01600000D03*
X01925000Y01800000D03*
X01700000Y01700000D03*
X01925000Y01375000D03*
X01150000Y01700000D03*
X01200000Y01800000D03*
X00800000Y01100000D03*
X00650000Y00900000D03*
X01000000Y00650000D03*
X01250000Y00550000D03*
X02325000Y00725000D03*
X03300000Y03700000D03*
X03400000Y03475000D03*
X02925000Y03700000D03*
X02425000Y04300000D03*
X01975000Y03900000D03*
X03750000Y04412500D03*
X04100000Y05025000D03*
X02150000Y02750000D03*
X02625000Y02850000D03*
X02425000Y02500000D03*
X02875000Y02550000D03*
Y02850000D03*
X03075000Y02550000D03*
X03425000Y02450000D03*
X03575000Y02325000D03*
X03787500Y02212500D03*
X03750000Y01900000D03*
X03700000Y01237500D03*
X03650000Y00737500D03*
X01500000Y01700000D03*
X01337500Y02437500D03*
X00750000Y02100000D03*
X04050000Y02575000D03*
X04000000Y03075000D03*
X04025000Y03575000D03*
X04000000Y04050000D03*
X03750000Y03975000D03*
X03775000Y03525000D03*
X03800000Y03125000D03*
X03875000Y05200000D03*
X04400000Y05250000D03*
Y04775000D03*
Y04300000D03*
X04175000Y04550000D03*
X04400000Y02875000D03*
X04050000Y02425000D03*
X02737500Y01875000D03*
X03950000Y01700000D03*
X06887500Y04387500D03*
X06687500Y04537500D03*
X06950000Y04962500D03*
X03650000Y01812500D03*
X03762500Y01600000D03*
X04525000Y02325000D03*
X06050000D03*
X02975000Y02225000D03*
X03000000Y01400000D03*
X02750000D03*
X02462500Y01362500D03*
X02625000Y02550000D03*
X02175000Y02187500D03*
X00450000Y01650000D03*
X00400000Y01300000D03*
X00150000Y01500000D03*
X00200000Y03050000D03*
Y04150000D03*
X00100000Y04950000D03*
X00850000Y04925000D03*
X00575000Y05200000D03*
X01125000D03*
X01675000D03*
X02225000D03*
X02775000D03*
X03325000D03*
X01675000Y04850000D03*
X01475000Y04950000D03*
X01375000Y04750000D03*
X01225000Y04875000D03*
X00900000Y04600000D03*
X02600000Y01650000D03*
X03787500Y02562500D03*
X03575000Y02425000D03*
X03787500Y02325000D03*
Y02425000D03*
D37*
X03800000Y02680000D02*
X03575000D01*
D02*
X03080000D01*
D02*
X02950000Y02550000D01*
D02*
Y02430000D01*
D38*
X00930500Y01982340D02*
Y02214500D01*
D37*
D02*
X00920000Y02225000D01*
D38*
X03725000Y00850000D02*
Y01057500D01*
D37*
D02*
X03707500Y01075000D01*
D36*
X03375000Y01050000D03*
D37*
X00650000Y02737500D02*
X00687500D01*
D36*
X00762500D03*
Y03887500D03*
D37*
D02*
X00650000D01*
D36*
X00825000Y04425000D03*
D38*
D02*
X01150000D01*
D02*
X01355000D01*
D37*
D02*
X01375000Y04405000D01*
D02*
X01405000D01*
D02*
X01425000Y04425000D01*
X01450000Y02545000D02*
X01225000D01*
D36*
X00762500Y02550000D03*
D38*
D02*
X00925000D01*
D37*
D02*
X01220000D01*
D02*
X01225000Y02545000D01*
X00920000Y02225000D02*
Y02245000D01*
D02*
X00925000Y02250000D01*
D38*
D02*
Y02550000D01*
X01525000Y04425000D02*
X01425000D01*
D36*
X03875000Y02612500D03*
D38*
X00762500Y02737500D02*
X00650000D01*
D37*
X03375000Y01050000D02*
X03245000D01*
D02*
X03250000Y01070000D01*
D02*
X03037500D01*
X03030000Y01270000D02*
Y01087500D01*
D02*
X03037500Y01070000D01*
D38*
X02437500Y04580000D02*
X01680000D01*
D02*
X01525000Y04425000D01*
X02687500Y04580000D02*
X02437500D01*
X02687500D02*
X02987500D01*
X03850000Y01550000D02*
X04045000D01*
D37*
D02*
X04050000Y01545000D01*
D38*
X03850000Y01550000D02*
Y01200000D01*
Y01550000D02*
Y01857500D01*
D02*
X03867500Y01875000D01*
X03875000Y02075000D02*
Y02612500D01*
Y01875000D02*
Y02075000D01*
D36*
X03912500Y04575000D03*
X00762500Y04362500D03*
D38*
D02*
X00825000Y04425000D01*
X04050000Y01545000D02*
X04250100D01*
D37*
D02*
Y01548100D01*
D38*
X03700000Y01100000D02*
X03750000D01*
D02*
X03850000Y01200000D01*
X02987500Y04580000D02*
X03237500D01*
X03242500Y04575000D02*
X03237500Y04580000D01*
X03537500D02*
X03545000D01*
D02*
X03550000Y04575000D01*
X03242500D02*
X03550000D01*
D02*
X03782500D01*
D02*
X03787500Y04580000D01*
X03912500Y04575000D02*
X03787500D01*
D02*
Y04580000D01*
X03875000Y02612500D02*
X03867500D01*
D02*
X03800000Y02680000D01*
D39*
X03525000Y00850000D02*
Y01067500D01*
D02*
X03517500Y01075000D01*
X03530000Y01930000D02*
X03620000D01*
D02*
X03700000Y01850000D01*
D02*
Y01350000D01*
D02*
X03525000Y01175000D01*
D02*
Y01082500D01*
D02*
X03517500Y01075000D01*
X04390000Y05377000D02*
X04127000D01*
D02*
X04125000Y05375000D01*
D02*
X04170000D01*
D02*
X04175000Y05370000D01*
X04390000Y04902000D02*
X04182000D01*
D02*
X04175000Y04882500D01*
X04390000Y04427000D02*
X04207000D01*
D02*
X04175000Y04395000D01*
X04390000Y03952000D02*
X04207000D01*
D02*
X04175000Y03920000D01*
X03270000Y02430000D02*
Y02495000D01*
D02*
X03275000Y02500000D01*
D02*
Y02537500D01*
D36*
D03*
X03950000Y04825000D03*
D39*
X04170000Y05175000D02*
X04175000Y05180000D01*
D02*
X04055000D01*
D02*
X04025000Y05150000D01*
D02*
Y04900000D01*
D02*
X03950000Y04825000D01*
X04170000Y04700000D02*
X04175000Y04692500D01*
X03350000Y02430000D02*
Y02537500D01*
D36*
D03*
X03950000Y04700000D03*
D39*
D02*
X04167500D01*
D02*
X04175000Y04692500D01*
X03532500Y02087500D02*
X03530000Y02090000D01*
X04167500Y03262500D02*
X04175000Y03255000D01*
X03530000Y02090000D02*
X03615000D01*
D02*
X03687500Y02162500D01*
D02*
Y02525000D01*
D36*
D03*
X03775000Y03250000D03*
D39*
D02*
X04170000D01*
D02*
X04175000Y03255000D01*
X03530000Y02170000D02*
X03620000D01*
D02*
X03650000Y02200000D01*
D36*
X03637500Y02475000D03*
X03750000Y03725000D03*
D39*
D02*
X04170000D01*
D02*
X04175000Y03730000D01*
X03637500Y02475000D02*
X03650000Y02462500D01*
D02*
Y02200000D01*
X00650000Y01237500D02*
X00712500D01*
D02*
X00725000Y01225000D01*
D02*
X00775000D01*
D36*
D03*
X00750000Y01850000D03*
D39*
D02*
X01125000D01*
X01184500Y01982340D02*
Y01909500D01*
D02*
X01125000Y01850000D01*
X00650000Y01362500D02*
X00825000D01*
D02*
X00862500Y01400000D01*
D02*
Y01500000D01*
D02*
X00887500Y01525000D01*
D02*
X01650000D01*
X01692500Y01367660D02*
Y01482500D01*
X01650000Y01525000D02*
X01692500Y01482500D01*
X00650000Y01487500D02*
X00712500D01*
D02*
X00725000Y01500000D01*
D02*
X00775000D01*
D36*
D03*
X00875000Y01750000D03*
D39*
D02*
X01275000D01*
X01311500Y01982340D02*
Y01786500D01*
D02*
X01275000Y01750000D01*
X00650000Y01612500D02*
X01712500D01*
D02*
X01819500Y01505500D01*
Y01367660D02*
Y01505500D01*
X00930500Y01230500D02*
X00875000Y01175000D01*
X00930500Y01230500D02*
Y01367660D01*
X00875000Y01175000D02*
Y00750000D01*
D02*
X00925000Y00700000D01*
D02*
X01175000D01*
D02*
X01225000Y00750000D01*
D02*
Y00880000D01*
X01184500Y01367660D02*
Y01110500D01*
D02*
X01225000Y01070000D01*
X01311500Y01367660D02*
Y01238500D01*
D02*
X01375000Y01175000D01*
D02*
Y00925000D01*
D02*
X01425000Y00875000D01*
D02*
X01520000D01*
D02*
X01525000Y00880000D01*
X01438500Y01367660D02*
Y01236500D01*
D02*
X01475000Y01200000D01*
D02*
Y01025000D01*
D02*
X01480000D01*
D02*
X01525000Y01070000D01*
X01057500Y01367660D02*
Y01102500D01*
D02*
X01025000Y01070000D01*
X01565500Y01367660D02*
Y01247000D01*
D02*
X01612500Y01200000D01*
D02*
X01700000D01*
D02*
X01725000Y01175000D01*
D02*
Y01070000D01*
X01438500Y01982340D02*
Y01938500D01*
D02*
X01437500Y01912500D01*
D02*
Y01825000D01*
D36*
D03*
X02487500Y01237500D03*
D39*
D02*
X02550000D01*
D02*
Y01270000D01*
X02870000D02*
Y01230000D01*
D02*
X02875000Y01212500D01*
D36*
Y01050000D03*
X02100000D03*
D39*
D02*
Y01525000D01*
D02*
X01819500Y01805500D01*
Y01982340D02*
Y01805500D01*
X02875000Y01212500D02*
Y01050000D01*
X01565500Y01982340D02*
Y01915500D01*
D02*
X01562500Y01900000D01*
D02*
Y01825000D01*
D36*
D03*
X02250000Y01450000D03*
D39*
X02375000Y01445000D02*
X02370000Y01450000D01*
X02250000D02*
X02370000D01*
X02787500Y01250000D02*
Y01150000D01*
Y01250000D02*
X02790000Y01270000D01*
D36*
X02787500Y01150000D03*
X02000000D03*
D39*
D02*
Y01500000D01*
D02*
X01692500Y01807500D01*
Y01982340D02*
Y01807500D01*
X02790000Y02430000D02*
Y02940000D01*
X03232600Y03100000D02*
X03075000D01*
D02*
X02950000D01*
D02*
X02790000Y02940000D01*
X03030000Y03145000D02*
X03075000Y03100000D01*
X03030000Y03450000D02*
Y03405000D01*
D02*
X03025000Y03400000D01*
D02*
X03050000D01*
D02*
Y03165000D01*
D02*
X03030000Y03145000D01*
X02710000Y02430000D02*
Y02940000D01*
X02267400Y03100000D02*
X02450000D01*
D02*
X02550000D01*
D02*
X02710000Y02940000D01*
X02445000Y03105000D02*
X02450000Y03100000D01*
Y03110000D02*
X02445000Y03105000D01*
X02470000Y03450000D02*
Y03420000D01*
D02*
X02450000Y03400000D01*
D02*
Y03110000D01*
X04390000Y03477000D02*
X04127000D01*
D02*
X04125000Y03475000D01*
D02*
X04145000D01*
D02*
X04175000Y03445000D01*
X04390000Y03002000D02*
X04207000D01*
D02*
X04175000Y02970000D01*
X03530000Y02250000D02*
X03512500D01*
D02*
Y02537500D01*
D36*
D03*
X03750000Y04200000D03*
D39*
D02*
X04170000D01*
D02*
X04175000Y04205000D01*
X03530000Y02010000D02*
X03610000D01*
D02*
X03725000Y02125000D01*
D02*
Y02462500D01*
D02*
X03737500Y02475000D01*
D36*
D03*
X04175000D03*
D39*
D02*
Y02780000D01*
D40*
X00363500Y05691750D02*
Y05788500D01*
D02*
X00400000Y05825000D01*
D02*
X00600000D01*
D02*
X00950000Y06175000D01*
D02*
Y06400000D01*
D36*
D03*
X00112500Y05825000D03*
D40*
D02*
Y05694750D01*
D02*
X00109500Y05691750D01*
D36*
X00912500Y06000000D03*
X01375000D03*
D40*
D02*
Y06289500D01*
D02*
X01473000Y06387500D01*
X00912500Y06000000D02*
Y05692750D01*
D02*
X00913500Y05691750D01*
X00659500D02*
Y05784500D01*
D02*
X00800000Y05925000D01*
D36*
D03*
X01475000D03*
D40*
D02*
Y06185500D01*
D02*
X01473000Y06187500D01*
X01675000Y05925000D02*
Y06185500D01*
D02*
X01673000Y06187500D01*
X01463500Y05691750D02*
Y05788500D01*
D02*
X01500000Y05825000D01*
D02*
X01575000D01*
D02*
X01675000Y05925000D01*
D36*
X01212500Y06075000D03*
X01775000D03*
D40*
D02*
Y06289500D01*
D02*
X01873000Y06387500D01*
X01212500Y06075000D02*
Y05694750D01*
D02*
X01209500Y05691750D01*
X01873000Y06187500D02*
Y05952000D01*
D02*
X02013500Y05811500D01*
Y05691750D02*
Y05811500D01*
D36*
X01762500Y05975000D03*
X01975000D03*
D40*
D02*
Y06289500D01*
D02*
X02073000Y06387500D01*
X01762500Y05975000D02*
Y05694750D01*
D02*
X01759500Y05691750D01*
D36*
X03412500Y01612500D03*
D39*
D02*
X03527500D01*
D02*
X03530000Y01610000D01*
D36*
X01337500Y04987500D03*
D39*
D02*
Y05107250D01*
D02*
X01336500Y05108250D01*
D36*
X03412500Y01687500D03*
D39*
D02*
X03527500D01*
D02*
X03530000Y01690000D01*
D36*
X01587500Y04987500D03*
D39*
D02*
Y05105250D01*
D02*
X01590500Y05108250D01*
X03275000Y01275000D02*
X03270000Y01270000D01*
D36*
X03212500Y01537500D03*
D39*
D02*
X03220000Y01530000D01*
X03275000Y01275000D02*
Y01475000D01*
D02*
X03212500Y01537500D01*
D36*
X00775000Y04987500D03*
D39*
D02*
Y05096750D01*
D02*
X00786500Y05108250D01*
D36*
X03262500Y01600000D03*
D39*
X03350000Y01270000D02*
Y01512500D01*
D02*
X03262500Y01600000D01*
D36*
X01037500Y04987500D03*
D39*
D02*
Y05105250D01*
D02*
X01040500Y05108250D01*
D36*
X03112500Y01412500D03*
D39*
Y01280000D02*
X03110000Y01270000D01*
X03112500Y01280000D02*
Y01412500D01*
D36*
X00237500Y04775000D03*
D39*
D02*
Y05107250D01*
D02*
X00236500Y05108250D01*
D36*
X03162500Y01475000D03*
D39*
X03190000Y01270000D02*
Y01447500D01*
D02*
X03162500Y01475000D01*
X00490500Y05108250D02*
Y05040500D01*
D02*
X00487500Y05037500D01*
D02*
Y04825000D01*
D36*
D03*
D40*
X05010000Y05377000D02*
Y05440000D01*
D02*
X04925000Y05525000D01*
X04285500Y06387500D02*
X04187500D01*
D02*
X04125000Y06325000D01*
D02*
Y06112500D01*
D02*
X04712500Y05525000D01*
D02*
X04925000D01*
X05010000Y04902000D02*
X05077000D01*
D02*
X05125000Y04950000D01*
D02*
Y05462500D01*
D02*
X05000000Y05587500D01*
X04285500Y06187500D02*
Y06039500D01*
D02*
X04737500Y05587500D01*
D02*
X05000000D01*
X05187500Y04525000D02*
Y05487500D01*
D02*
X05025000Y05650000D01*
X04485500Y06385500D02*
X04387500Y06287500D01*
D02*
Y06025000D01*
D02*
X04762500Y05650000D01*
D02*
X05025000D01*
X05010000Y04427000D02*
X05089500D01*
D02*
X05187500Y04525000D01*
X05010000Y03952000D02*
X05089500D01*
D02*
X05250000Y04112500D01*
D02*
Y05512500D01*
D02*
X05050000Y05712500D01*
D02*
X04787500D01*
D02*
X04485500Y06014500D01*
Y06187500D02*
Y06014500D01*
X05010000Y03477000D02*
X05102000D01*
D02*
X05312500Y03687500D01*
D02*
Y05537500D01*
D02*
X05075000Y05775000D01*
X04687500Y06387500D02*
X04587500Y06287500D01*
D02*
Y06000000D01*
D02*
X04812500Y05775000D01*
D02*
X05075000D01*
X05010000Y03002000D02*
X05102000D01*
D02*
X05375000Y03275000D01*
D02*
Y05562500D01*
D02*
X05100000Y05837500D01*
D02*
X04887500D01*
D02*
X04787500Y05937500D01*
X04875000Y06387500D02*
Y06375000D01*
D02*
X04787500Y06287500D01*
D02*
Y05937500D01*
D36*
X05525000Y02750000D03*
D40*
D02*
X05738000D01*
D02*
X05740000Y02748000D01*
D36*
X04987500Y06075000D03*
D40*
X05738000Y03225000D02*
X05740000Y03223000D01*
X05738000Y03225000D02*
X05525000D01*
D36*
D03*
D40*
X04987500Y06075000D02*
Y06289500D01*
D02*
X05085500Y06387500D01*
D39*
X06360000Y02748000D02*
X06543000D01*
D02*
X06562500Y02780000D01*
X06360000Y03223000D02*
X06543000D01*
D02*
X06562500Y03255000D01*
D36*
X02550000Y02075000D03*
X06537500Y02087500D03*
D39*
D02*
Y02300000D01*
D02*
X06700000Y02462500D01*
D02*
Y02950000D01*
D02*
X06675000Y02975000D01*
D02*
X06580000D01*
D02*
X06562500Y02970000D01*
X02550000Y02075000D02*
Y02112500D01*
D02*
X02500000Y02162500D01*
D02*
X02377500D01*
D02*
X02370000Y02170000D01*
Y01530000D02*
X02655000D01*
D02*
X02812500Y01687500D01*
D02*
Y01925000D01*
D36*
D03*
X06637500Y01962500D03*
D39*
D02*
Y02350000D01*
D02*
X06737500Y02450000D01*
D02*
Y03387500D01*
X06675000Y03450000D02*
X06580000D01*
D02*
X06562500Y03445000D01*
X06737500Y03387500D02*
X06675000Y03450000D01*
D36*
X03412500Y01775000D03*
D39*
D02*
X03525000D01*
D02*
X03530000Y01770000D01*
X03535000Y01775000D02*
X03530000Y01770000D01*
D36*
X01887500Y04987500D03*
D39*
D02*
Y05107250D01*
D02*
X01886500Y05108250D01*
X03530000Y01850000D02*
X03412500D01*
D36*
D03*
X02137500Y04987500D03*
D39*
D02*
Y05105250D01*
D02*
X02140500Y05108250D01*
D37*
X04400000Y01522700D02*
Y01375000D01*
D02*
Y01256000D01*
D38*
X04750000Y01355000D02*
X04420000D01*
D37*
D02*
X04400000Y01375000D01*
D38*
X04750000Y01355000D02*
Y01187500D01*
D39*
X02710000Y01270000D02*
Y01135000D01*
D02*
X02675000Y01100000D01*
D02*
X02605000D01*
D02*
X02575000Y01070000D01*
X00650000Y04012500D02*
X00925000D01*
D36*
D03*
Y02862500D03*
D39*
D02*
X00650000D01*
D36*
X01450000Y02225000D03*
D39*
D02*
X01912500D01*
D02*
X02212500Y01925000D01*
D02*
X02365000D01*
D02*
X02370000Y01930000D01*
X01450000Y02355000D02*
Y02225000D01*
X00650000Y04137500D02*
X00875000D01*
D36*
D03*
Y02987500D03*
D39*
D02*
X00650000D01*
X01225000Y02175000D02*
X01900000D01*
D02*
X02225000Y01850000D01*
D02*
X02370000D01*
D36*
X01225000Y02175000D03*
D39*
Y02355000D02*
Y02175000D01*
X02375000Y00870000D02*
X02565000D01*
D02*
X02575000Y00880000D01*
D40*
X02563500Y05691750D02*
Y05836500D01*
D02*
X02375000Y06025000D01*
D02*
Y06285500D01*
D02*
X02273000Y06387500D01*
X05738000Y03700000D02*
X05740000Y03698000D01*
X05738000Y03700000D02*
X05525000D01*
D36*
D03*
D39*
X03190000Y02430000D02*
Y02390000D01*
D02*
X03200000Y02362500D01*
D02*
Y02187500D01*
D36*
D03*
D39*
X02690500Y05108250D02*
Y04900000D01*
D02*
Y04773000D01*
D02*
X02687500Y04770000D01*
D36*
X02690500Y04900000D03*
X03112500Y02125000D03*
D39*
X02436500Y05108250D02*
Y04950000D01*
D02*
Y04771000D01*
D02*
X02437500Y04770000D01*
D36*
X02436500Y04950000D03*
D39*
X03112500Y02125000D02*
Y02420000D01*
D02*
X03110000Y02430000D01*
X06360000Y03698000D02*
X06543000D01*
D02*
X06562500Y03730000D01*
D36*
X02500000Y02025000D03*
X06725000Y02075000D03*
D39*
D02*
Y02387500D01*
D02*
X06775000Y02437500D01*
D02*
Y03825000D01*
D02*
X06675000Y03925000D01*
D02*
X06580000D01*
D02*
X06562500Y03920000D01*
X02500000Y02025000D02*
Y02062500D01*
D02*
X02475000Y02087500D01*
D02*
X02372500D01*
D02*
X02370000Y02090000D01*
X06562500Y04395000D02*
X06667500D01*
D02*
X06812500Y04250000D01*
D02*
Y02400000D01*
D02*
X06787500Y02375000D01*
D36*
D03*
X02625000Y02300000D03*
D39*
D02*
Y02422500D01*
D02*
X02630000Y02430000D01*
X06360000Y04173000D02*
X06543000D01*
D02*
X06562500Y04205000D01*
D40*
X05740000Y04173000D02*
X05602000D01*
D02*
X05437500Y04337500D01*
D02*
Y05587500D01*
D02*
X05187500Y05837500D01*
X05285500Y06387500D02*
Y06385500D01*
D02*
X05187500Y06287500D01*
D02*
Y05837500D01*
D38*
X04975000Y00930000D02*
X04817500D01*
D02*
X04750000Y00862500D01*
X02436500Y05691750D02*
Y05563500D01*
D02*
X02475000Y05525000D01*
D02*
X02700000D01*
D02*
X03000000D01*
X02690500Y05691750D02*
Y05534500D01*
D02*
X02700000Y05525000D01*
X02986500Y05691750D02*
Y05538500D01*
D02*
X03000000Y05525000D01*
X03790500Y05691750D02*
Y05565500D01*
D02*
X03750000Y05525000D01*
D02*
X03250000D01*
D02*
X03000000D01*
X03240500Y05691750D02*
Y05534500D01*
D02*
X03250000Y05525000D01*
X02673000Y06187500D02*
Y06152000D01*
D02*
X02775000Y06050000D01*
D02*
X03050000D01*
D02*
X03240500Y05859500D01*
Y05691750D02*
Y05859500D01*
X00236500Y05691750D02*
Y05563500D01*
D02*
X00275000Y05525000D01*
D02*
X00475000D01*
D02*
X00800000D01*
D02*
X00975000D01*
X01040500Y05691750D02*
Y05590500D01*
D02*
X00975000Y05525000D01*
X00490500Y05691750D02*
Y05540500D01*
D02*
X00475000Y05525000D01*
X00786500Y05691750D02*
Y05538500D01*
D02*
X00800000Y05525000D01*
X01673000Y06387500D02*
Y06477000D01*
D02*
X01600000Y06550000D01*
D02*
X01125000D01*
D02*
X01062500Y06487500D01*
D02*
X01050000Y06475000D01*
X01040500Y05691750D02*
Y06465500D01*
D02*
X01050000Y06475000D01*
X04975000Y01545000D02*
X05937000D01*
D37*
D02*
X05944000Y01552000D01*
D38*
X04975000Y01120000D02*
Y01355000D01*
D39*
X03240500Y05108250D02*
Y04900000D01*
D02*
Y04773000D01*
D02*
X03237500Y04770000D01*
D36*
X03240500Y04900000D03*
D39*
X02370000Y01690000D02*
X02465000D01*
D36*
X02525000Y02262500D03*
D39*
X02600000Y02187500D02*
Y01825000D01*
D02*
X02465000Y01690000D01*
X02600000Y02187500D02*
X02525000Y02262500D01*
X02630000Y01270000D02*
Y01320000D01*
D02*
X02625000Y01325000D01*
D02*
Y01375000D01*
D02*
X02900000Y01650000D01*
D02*
Y02212500D01*
D36*
D03*
D39*
X02986500Y05108250D02*
Y04900000D01*
D02*
Y04771000D01*
D02*
X02987500Y04770000D01*
D36*
X02986500Y04900000D03*
D40*
X02309500Y05691750D02*
Y06151000D01*
D02*
X02273000Y06187500D01*
X03113500Y05691750D02*
Y05786500D01*
D02*
X02950000Y05950000D01*
D02*
X02650000D01*
D02*
X02575000Y06025000D01*
D02*
Y06285500D01*
D02*
X02473000Y06387500D01*
X02859500Y05691750D02*
Y05778000D01*
D02*
X02762500Y05875000D01*
D02*
X02625000D01*
D02*
X02475000Y06025000D01*
D02*
Y06185500D01*
D02*
X02473000Y06187500D01*
D38*
X04875000Y04650000D02*
Y04175000D01*
X05010000Y04173000D02*
X04877000D01*
D02*
X04875000Y04175000D01*
X05010000Y04648000D02*
X04877000D01*
D02*
X04875000Y04650000D01*
Y05425000D02*
Y05125000D01*
D02*
Y04650000D01*
X05010000Y05123000D02*
X04877000D01*
D02*
X04875000Y05125000D01*
X05010000Y03223000D02*
X04927000D01*
D02*
X04875000Y03275000D01*
D02*
Y03700000D01*
D02*
Y04175000D01*
X05010000Y03698000D02*
X04877000D01*
D02*
X04875000Y03700000D01*
D36*
Y05425000D03*
D38*
X05740000Y04427000D02*
X05848000D01*
D02*
X05875000Y04400000D01*
D02*
Y03950000D01*
D02*
Y03475000D01*
D02*
Y03100000D01*
X05740000Y03002000D02*
X05777000D01*
D02*
X05875000Y03100000D01*
X05740000Y03477000D02*
X05873000D01*
D02*
X05875000Y03475000D01*
X05740000Y03952000D02*
X05873000D01*
D02*
X05875000Y03950000D01*
X05010000Y02748000D02*
X05273000D01*
D02*
X05527000Y03002000D01*
X05740000D02*
X05527000D01*
D36*
X05875000Y04400000D03*
X06887500Y02275000D03*
X03025000D03*
D39*
D02*
Y02425000D01*
D02*
X03030000Y02430000D01*
X06950000Y04350000D02*
X06887500Y04287500D01*
D02*
Y02275000D01*
X06950000Y04350000D02*
Y04867500D01*
D02*
X06812500Y05005000D01*
D36*
X02550000Y01975000D03*
X06825000Y02025000D03*
D39*
D02*
Y02287500D01*
D02*
X06850000Y02312500D01*
X06812500Y04312500D02*
X06850000Y04275000D01*
D02*
Y02312500D01*
X06812500Y04505000D02*
Y04312500D01*
X02370000Y01770000D02*
X02470000D01*
D02*
X02550000Y01850000D01*
D02*
Y01975000D01*
X06577000Y04669000D02*
X06799000D01*
D02*
X06812500Y04695000D01*
X06577000Y05177000D02*
X06807000D01*
D02*
X06812500Y05195000D01*
D38*
X01336500Y05691750D02*
Y05563500D01*
D02*
X01375000Y05525000D01*
D02*
X01575000D01*
D02*
X01900000D01*
D02*
X02075000D01*
X02140500Y05691750D02*
Y05590500D01*
D02*
X02075000Y05525000D01*
X01590500Y05691750D02*
Y05540500D01*
D02*
X01575000Y05525000D01*
X01886500Y05691750D02*
Y05538500D01*
D02*
X01900000Y05525000D01*
X02073000Y06187500D02*
Y06002000D01*
D02*
X02140500Y05934500D01*
Y05691750D02*
Y05934500D01*
D40*
X03663500Y05691750D02*
Y05986500D01*
D02*
X03100000Y06550000D01*
D02*
X02750000D01*
X02673000Y06387500D02*
Y06473000D01*
D02*
X02750000Y06550000D01*
D39*
X03790500Y05108250D02*
Y04923000D01*
D36*
D03*
X02650000Y01925000D03*
D39*
X03790500Y04923000D02*
Y04773000D01*
D02*
X03787500Y04770000D01*
X02370000Y01610000D02*
X02460000D01*
D02*
X02650000Y01800000D01*
D02*
Y01925000D01*
X03536500Y05108250D02*
Y04975000D01*
D02*
Y04771000D01*
D02*
X03537500Y04770000D01*
X02370000Y02010000D02*
X02290000D01*
D02*
X02250000Y02050000D01*
D02*
Y02225000D01*
D36*
D03*
X03536500Y04975000D03*
D40*
Y05691750D02*
Y05913500D01*
D02*
X03062500Y06387500D01*
X02873000D02*
X03062500D01*
X02873000Y06187500D02*
X03062500D01*
D02*
X03409500Y05840500D01*
Y05691750D02*
Y05840500D01*
X05623000Y04923000D02*
X05823000D01*
D02*
X05825000Y04925000D01*
D36*
D03*
D40*
X05623000Y04669000D02*
X05794000D01*
D02*
X05900000Y04775000D01*
Y06425000D02*
X05800000Y06525000D01*
D02*
X05550000D01*
D02*
X05485500Y06460500D01*
Y06387500D02*
Y06460500D01*
X05900000Y04775000D02*
Y06425000D01*
X05685500Y06387500D02*
X05712500D01*
D02*
X05825000Y06275000D01*
D02*
Y05275000D01*
D02*
X05700000Y05150000D01*
D02*
X05650000D01*
D02*
X05623000Y05177000D01*
X05685500Y06187500D02*
Y05493500D01*
D02*
X05623000Y05431000D01*
G04 END IMAGE *
M02*
