G04 EdaTools v1.0. *
G04 EdaTools CAM processor. Gerber generator. *
G04 BEGIN HEADER *
%TF.FileFunction,Plated,1,2,PTH,Drill*%
%TF.FilePolarity,Positive*%
%MOMM*%
%FSLAX35Y35*%
%OFA0B0*%
%IPPOS*%
G04 END HEADER *
G04 BEGIN APERTURES *
%ADD85C,0.8*%
%ADD86C,1.016*%
%ADD87C,0.25*%
G04 END APERTURES *
G04 BEGIN IMAGE *
D85*
X03525000Y00850000D03*
X03725000D03*
X03925000D03*
X04125000D03*
X04325000D03*
D86*
X05944000Y01552000D03*
Y01298000D03*
D85*
X01273000Y06187500D03*
Y06387500D03*
X01473000Y06187500D03*
Y06387500D03*
X01673000Y06187500D03*
Y06387500D03*
X01873000Y06187500D03*
Y06387500D03*
X02073000Y06187500D03*
Y06387500D03*
X02273000Y06187500D03*
Y06387500D03*
X02473000Y06187500D03*
Y06387500D03*
X02673000Y06187500D03*
Y06387500D03*
X02873000D03*
Y06187500D03*
X04285500D03*
Y06387500D03*
X04485500Y06187500D03*
Y06387500D03*
X04685500Y06187500D03*
Y06387500D03*
X04885500Y06187500D03*
Y06387500D03*
X05085500Y06187500D03*
Y06387500D03*
X05285500Y06187500D03*
Y06387500D03*
X05485500Y06187500D03*
Y06387500D03*
X05685500Y06187500D03*
Y06387500D03*
D87*
X00200000Y04575000D03*
X00400000D03*
Y04475000D03*
X00200000D03*
Y03675000D03*
Y03575000D03*
X00400000D03*
Y03675000D03*
X00200000Y03425000D03*
X00400000D03*
Y03325000D03*
X00200000D03*
Y02525000D03*
X00400000D03*
Y02425000D03*
X00200000D03*
Y02050000D03*
X00400000D03*
Y01950000D03*
X00200000D03*
Y01025000D03*
Y00925000D03*
X00400000D03*
Y01025000D03*
X01725000Y02662500D03*
X03375000Y00775000D03*
X04400000Y03825000D03*
Y03350000D03*
X04150000Y01225000D03*
X04600000Y01250000D03*
X05150000Y01400000D03*
X05250000Y01050000D03*
X05500000Y00800000D03*
X05600000Y01050000D03*
X05650000Y01400000D03*
X02025000Y03600000D03*
X01400000Y02750000D03*
X01725000Y04675000D03*
X02825000Y04750000D03*
X02025000Y04300000D03*
X01950000Y03175000D03*
X01400000Y03450000D03*
Y03875000D03*
Y04225000D03*
X00350000Y04850000D03*
X00950000Y04300000D03*
X01025000Y04075000D03*
X00450000Y04250000D03*
X00650000Y04400000D03*
X00450000Y03100000D03*
X00600000Y03300000D03*
X00450000Y02900000D03*
Y04000000D03*
X00600000Y03500000D03*
X01050000Y02750000D03*
Y03200000D03*
Y03650000D03*
X01400000Y00750000D03*
X01875000Y00775000D03*
X01900000Y01075000D03*
X01250000Y01200000D03*
X01000000D03*
X01900000Y02462500D03*
X02625000Y03500000D03*
X02175000Y04475000D03*
X02725000Y03725000D03*
X02250000Y04700000D03*
X01412500Y03025000D03*
X00750000Y04650000D03*
X04000000Y05450000D03*
X04550000Y01700000D03*
X02125000Y03450000D03*
X01125000Y01200000D03*
X01025000Y00762500D03*
X02925000Y01150000D03*
X06575000Y02575000D03*
X06275000Y02450000D03*
X05775000D03*
X05425000Y02325000D03*
X04975000Y02450000D03*
X04500000D03*
X04550000Y02175000D03*
X04850000D03*
X04112500Y02200000D03*
X04250000Y01825000D03*
X04650000Y01875000D03*
X05150000Y01825000D03*
X05600000Y01775000D03*
X05950000Y01875000D03*
X06350000Y01825000D03*
X06700000Y01725000D03*
X06850000Y01875000D03*
X06450000Y02175000D03*
X06000000Y02125000D03*
X05700000Y02175000D03*
X06350000Y02875000D03*
Y03350000D03*
Y03825000D03*
Y04300000D03*
X06937500Y05537500D03*
X06437500D03*
Y04787500D03*
X06937500Y04262500D03*
X06750000Y04025000D03*
X06937500Y03475000D03*
Y02775000D03*
X04550000Y01000000D03*
X04200000D03*
Y01400000D03*
X03500000Y01350000D03*
X03350000Y02150000D03*
X03250000Y01900000D03*
X02975000Y01875000D03*
X03000000Y01650000D03*
X02175000Y01350000D03*
X02125000Y01600000D03*
X01925000Y01800000D03*
X01700000Y01700000D03*
X01925000Y01375000D03*
X01150000Y01700000D03*
X01200000Y01800000D03*
X00800000Y01100000D03*
X00650000Y00900000D03*
X01000000Y00650000D03*
X01250000Y00550000D03*
X02325000Y00725000D03*
X03300000Y03700000D03*
X03400000Y03475000D03*
X02925000Y03700000D03*
X02425000Y04300000D03*
X01975000Y03900000D03*
X03750000Y04412500D03*
X04100000Y05025000D03*
X02150000Y02750000D03*
X02625000Y02850000D03*
X02425000Y02500000D03*
X02875000Y02550000D03*
Y02850000D03*
X03075000Y02550000D03*
X03425000Y02450000D03*
X03575000Y02325000D03*
X03787500Y02212500D03*
X03750000Y01900000D03*
X03700000Y01237500D03*
X03650000Y00737500D03*
X01500000Y01700000D03*
X01337500Y02437500D03*
X00750000Y02100000D03*
X04050000Y02575000D03*
X04000000Y03075000D03*
X04025000Y03575000D03*
X04000000Y04050000D03*
X03750000Y03975000D03*
X03775000Y03525000D03*
X03800000Y03125000D03*
X03875000Y05200000D03*
X04400000Y05250000D03*
Y04775000D03*
Y04300000D03*
X04175000Y04550000D03*
X04400000Y02875000D03*
X04050000Y02425000D03*
X02737500Y01875000D03*
X03950000Y01700000D03*
X06887500Y04387500D03*
X06687500Y04537500D03*
X06950000Y04962500D03*
X03650000Y01812500D03*
X03762500Y01600000D03*
X04525000Y02325000D03*
X06050000D03*
X02975000Y02225000D03*
X03000000Y01400000D03*
X02750000D03*
X02462500Y01362500D03*
X02625000Y02550000D03*
X02175000Y02187500D03*
X00450000Y01650000D03*
X00400000Y01300000D03*
X00150000Y01500000D03*
X00200000Y03050000D03*
Y04150000D03*
X00100000Y04950000D03*
X00850000Y04925000D03*
X00575000Y05200000D03*
X01125000D03*
X01675000D03*
X02225000D03*
X02775000D03*
X03325000D03*
X01675000Y04850000D03*
X01475000Y04950000D03*
X01375000Y04750000D03*
X01225000Y04875000D03*
X00900000Y04600000D03*
X02600000Y01650000D03*
X03787500Y02562500D03*
X03575000Y02425000D03*
X03787500Y02325000D03*
Y02425000D03*
X03375000Y01050000D03*
X00762500Y02737500D03*
Y03887500D03*
X00825000Y04425000D03*
X00762500Y02550000D03*
X03875000Y02612500D03*
X03912500Y04575000D03*
X00762500Y04362500D03*
X03275000Y02537500D03*
X03950000Y04825000D03*
X03350000Y02537500D03*
X03950000Y04700000D03*
X03687500Y02525000D03*
X03775000Y03250000D03*
X03637500Y02475000D03*
X03750000Y03725000D03*
X00775000Y01225000D03*
X00750000Y01850000D03*
X00775000Y01500000D03*
X00875000Y01750000D03*
X01437500Y01825000D03*
X02487500Y01237500D03*
X02875000Y01050000D03*
X02100000D03*
X01562500Y01825000D03*
X02250000Y01450000D03*
X02787500Y01150000D03*
X02000000D03*
X03512500Y02537500D03*
X03750000Y04200000D03*
X03737500Y02475000D03*
X04175000D03*
X00950000Y06400000D03*
X00112500Y05825000D03*
X00912500Y06000000D03*
X01375000D03*
X00800000Y05925000D03*
X01475000D03*
X01212500Y06075000D03*
X01775000D03*
X01762500Y05975000D03*
X01975000D03*
X03412500Y01612500D03*
X01337500Y04987500D03*
X03412500Y01687500D03*
X01587500Y04987500D03*
X03212500Y01537500D03*
X00775000Y04987500D03*
X03262500Y01600000D03*
X01037500Y04987500D03*
X03112500Y01412500D03*
X00237500Y04775000D03*
X03162500Y01475000D03*
X00487500Y04825000D03*
X05525000Y02750000D03*
X04987500Y06075000D03*
X05525000Y03225000D03*
X02550000Y02075000D03*
X06537500Y02087500D03*
X02812500Y01925000D03*
X06637500Y01962500D03*
X03412500Y01775000D03*
X01887500Y04987500D03*
X03412500Y01850000D03*
X02137500Y04987500D03*
X00925000Y04012500D03*
Y02862500D03*
X01450000Y02225000D03*
X00875000Y04137500D03*
Y02987500D03*
X01225000Y02175000D03*
X05525000Y03700000D03*
X03200000Y02187500D03*
X02690500Y04900000D03*
X03112500Y02125000D03*
X02436500Y04950000D03*
X02500000Y02025000D03*
X06725000Y02075000D03*
X06787500Y02375000D03*
X02625000Y02300000D03*
X03240500Y04900000D03*
X02525000Y02262500D03*
X02900000Y02212500D03*
X02986500Y04900000D03*
X04875000Y05425000D03*
X05875000Y04400000D03*
X06887500Y02275000D03*
X03025000D03*
X02550000Y01975000D03*
X06825000Y02025000D03*
X03790500Y04923000D03*
X02650000Y01925000D03*
X02250000Y02225000D03*
X03536500Y04975000D03*
X05825000Y04925000D03*
G04 END IMAGE *
M02*
